<?xml version="1.0" ?><!DOCTYPE svg  PUBLIC '-//W3C//DTD SVG 1.1//EN'  'http://www.w3.org/Graphics/SVG/1.1/DTD/svg11.dtd'><svg height="300px" style="shape-rendering:geometricPrecision; text-rendering:geometricPrecision; image-rendering:optimizeQuality; fill-rule:evenodd; clip-rule:evenodd" version="1.1" viewBox="0 0 263 233" width="250px" xml:space="preserve" xmlns="http://www.w3.org/2000/svg" xmlns:xlink="http://www.w3.org/1999/xlink"><defs><style type="text/css">
   <![CDATA[
    .fil1 {fill:#FEFEFE}
    .fil0 {fill:#201E1E}
   ]]>
  </style></defs><g id="Layer_x0020_1"><g id="_556772088"><ellipse class="fil0" cx="131" cy="194" rx="131" ry="39"/><path class="fil0" d="M184 194c-4,2 -8,2 -13,1 -1,-1 -3,-2 -5,-2 -2,-1 -4,-3 -6,-4 -23,-18 -27,-55 -11,-79 1,-6 5,-11 11,-13 6,-4 13,-4 18,-1 3,1 6,1 8,3 1,-1 2,-2 3,-3 -2,-22 -9,-50 -32,-57 -14,-4 -29,-4 -43,4 -18,10 -29,30 -34,50 1,1 2,1 4,2 3,-2 7,-4 11,-3 3,0 5,0 8,0 11,3 17,15 20,25 2,7 3,15 4,22 1,21 -2,49 -26,56 -6,2 -11,1 -15,-2 -3,2 -6,4 -10,5 -15,3 -33,0 -44,-11 -9,-9 -12,-21 -11,-33 1,-18 10,-35 23,-48 0,-10 1,-21 4,-32 14,-47 58,-83 109,-72 47,10 67,57 70,100 2,2 4,4 6,6 13,15 14,37 7,55 -5,13 -14,24 -27,30 -3,3 -7,5 -11,4 -2,1 -4,1 -5,1 -5,1 -9,-1 -13,-4z"/><path class="fil1" d="M114 139c0,-6 -5,-41 -19,-34 -1,-2 -4,-1 -4,2 2,24 0,48 0,72 0,3 3,5 6,4 17,-5 18,-29 17,-44zm101 -30c-2,-40 -18,-86 -60,-95 -58,-13 -103,45 -99,98 -13,10 -21,26 -23,43 -2,25 20,34 41,31 2,0 3,-2 3,-4 4,-13 4,-27 4,-41 -1,-5 0,-12 -2,-18 0,-2 0,-5 1,-7 0,-2 -2,-4 -3,-4 2,-4 -1,-10 -6,-8 -2,1 -4,2 -6,2 4,-48 42,-95 96,-79 32,10 39,48 42,79 -2,0 -4,0 -5,0 -3,1 -5,3 -5,6 0,0 0,0 0,0 -3,-1 -7,0 -7,4 0,0 0,1 0,1 0,0 0,0 0,0 0,0 0,0 0,1 1,3 2,6 2,10 0,0 0,0 0,0 0,4 1,9 1,12 0,14 -1,29 2,42 0,2 3,4 5,4 2,0 3,-1 5,-1 2,0 4,0 5,-2 29,-12 35,-61 9,-74zm-35 8c3,-2 2,-8 -3,-8l-3 0c-2,-2 -5,-3 -8,-1 0,0 0,0 0,1l-1 0c-3,0 -5,2 -4,5 -14,19 -12,52 8,65 0,1 1,2 2,2 2,1 3,2 5,2 2,1 6,-1 6,-4 -1,-6 -1,-11 -1,-16 2,-15 1,-31 -1,-46zm-78 8c-1,1 -1,2 -1,3 0,1 -1,2 -1,4 0,-4 0,-9 -1,-13 1,2 2,4 3,6zm-1 34c0,2 1,4 2,5 -1,2 -1,3 -2,5 0,-4 0,-7 0,-10z"/></g></g></svg>